<svg width="36" height="36" viewBox="0 0 36 36" fill="none" xmlns="http://www.w3.org/2000/svg">
<g filter="url(#filter0_i_948_2827)">
<circle cx="18" cy="18" r="17.5" fill="white"/>
</g>
<circle cx="18" cy="18" r="17" stroke="#E3E6EA"/>
<path d="M7.39779 20.4521C7.39779 21.498 7.62451 22.3009 7.92074 22.7867C8.3092 23.4229 8.88846 23.6925 9.47913 23.6925C10.2409 23.6925 10.9379 23.5009 12.2809 21.6198C13.3569 20.1121 14.6247 17.9956 15.4777 16.6688L16.9224 14.4209C17.926 12.8598 19.0874 11.1244 20.4193 9.94808C21.5063 8.98794 22.6792 8.45459 23.8595 8.45459C25.8412 8.45459 27.7288 9.61758 29.1735 11.7988C30.7545 14.1876 31.522 17.1965 31.522 20.3016C31.522 22.1475 31.1628 23.5038 30.5514 24.5755C29.9608 25.6118 28.8095 26.6471 26.8731 26.6471V23.6925C28.5312 23.6925 28.945 22.1494 28.945 20.3835C28.945 17.8671 28.3656 15.0743 27.0894 13.079C26.1836 11.6635 25.0099 10.7987 23.7186 10.7987C22.3219 10.7987 21.1979 11.8654 19.9348 13.7677C19.2633 14.7782 18.5739 16.0098 17.7999 17.3994L16.9478 18.9281C15.236 22.0018 14.8024 22.7018 13.9466 23.8572C12.4464 25.8804 11.1656 26.6471 9.47913 26.6471C7.47871 26.6471 6.2136 25.7698 5.43023 24.4478C4.79065 23.3705 4.47656 21.9571 4.47656 20.3464L7.39779 20.4521Z" fill="#0081FB"/>
<path d="M6.78125 12.0073C8.12063 9.91673 10.0533 8.45459 12.2701 8.45459C13.554 8.45459 14.8302 8.83944 16.163 9.94144C17.6207 11.1463 19.1744 13.1303 21.1128 16.4003L21.808 17.5736C23.4857 20.4045 24.4403 21.8608 24.999 22.5477C25.7176 23.4296 26.2208 23.6925 26.8744 23.6925C28.5326 23.6925 28.9464 22.1494 28.9464 20.3835L31.5234 20.3016C31.5234 22.1475 31.1642 23.5038 30.5528 24.5755C29.9622 25.6118 28.8109 26.6471 26.8744 26.6471C25.6706 26.6471 24.6041 26.3823 23.4247 25.2555C22.518 24.3907 21.4581 22.8543 20.6426 21.4731L18.2169 17.3698C17 15.3106 15.8835 13.7752 15.2375 13.0798C14.5426 12.3322 13.649 11.4292 12.2232 11.4292C11.0692 11.4292 10.0891 12.2493 9.26901 13.5037L6.78125 12.0073Z" fill="url(#paint0_linear_948_2827)"/>
<path d="M12.2217 11.4292C11.0677 11.4292 10.0876 12.2493 9.26752 13.5037C8.10794 15.2763 7.39779 17.9166 7.39779 20.4521C7.39779 21.498 7.62451 22.3009 7.92074 22.7867L5.43023 24.4478C4.79065 23.3705 4.47656 21.9571 4.47656 20.3464C4.47656 17.4174 5.27039 14.3648 6.77986 12.0073C8.11925 9.91673 10.0519 8.45459 12.2687 8.45459L12.2217 11.4292Z" fill="url(#paint1_linear_948_2827)"/>
<defs>
<filter id="filter0_i_948_2827" x="0.5" y="0.5" width="38" height="40" filterUnits="userSpaceOnUse" color-interpolation-filters="sRGB">
<feFlood flood-opacity="0" result="BackgroundImageFix"/>
<feBlend mode="normal" in="SourceGraphic" in2="BackgroundImageFix" result="shape"/>
<feColorMatrix in="SourceAlpha" type="matrix" values="0 0 0 0 0 0 0 0 0 0 0 0 0 0 0 0 0 0 127 0" result="hardAlpha"/>
<feOffset dx="3" dy="5"/>
<feGaussianBlur stdDeviation="5"/>
<feComposite in2="hardAlpha" operator="arithmetic" k2="-1" k3="1"/>
<feColorMatrix type="matrix" values="0 0 0 0 0.0588235 0 0 0 0 0.0862745 0 0 0 0 0.117647 0 0 0 0.08 0"/>
<feBlend mode="normal" in2="shape" result="effect1_innerShadow_948_2827"/>
</filter>
<linearGradient id="paint0_linear_948_2827" x1="350.153" y1="1026.04" x2="2210.27" y2="1118.8" gradientUnits="userSpaceOnUse">
<stop stop-color="#0064E1"/>
<stop offset="0.4" stop-color="#0064E1"/>
<stop offset="0.83" stop-color="#0073EE"/>
<stop offset="1" stop-color="#0082FB"/>
</linearGradient>
<linearGradient id="paint1_linear_948_2827" x1="427.707" y1="1332.41" x2="427.707" y2="637.1" gradientUnits="userSpaceOnUse">
<stop stop-color="#0082FB"/>
<stop offset="1" stop-color="#0064E0"/>
</linearGradient>
</defs>
</svg>
