<svg width="36" height="36" viewBox="0 0 36 36" fill="none" xmlns="http://www.w3.org/2000/svg">
<g filter="url(#filter0_i_948_2813)">
<circle cx="18" cy="18" r="17.5" fill="white"/>
</g>
<circle cx="18" cy="18" r="17" stroke="#E3E6EA"/>
<path d="M29.8834 14.7206C29.8834 14.1767 29.6673 13.655 29.2827 13.2704C28.8981 12.8858 28.3765 12.6698 27.8326 12.6698H26.0936C26.3475 12.1605 26.4768 11.5982 26.4709 11.0292C26.4774 10.5467 26.388 10.0678 26.2079 9.62023C26.0278 9.17265 25.7605 8.7653 25.4217 8.42186C25.0828 8.07843 24.6791 7.80573 24.234 7.61963C23.7889 7.43352 23.3112 7.33771 22.8287 7.33775C21.8093 7.30221 20.7968 7.51868 19.8811 7.96798C18.9653 8.41728 18.1745 9.08554 17.5787 9.91353C16.983 9.08554 16.1922 8.41728 15.2764 7.96798C14.3606 7.51868 13.3481 7.30221 12.3287 7.33775C11.3627 7.33775 10.4363 7.72148 9.7533 8.40452C9.07026 9.08757 8.68653 10.014 8.68653 10.9799C8.68061 11.549 8.80994 12.1113 9.06387 12.6206H7.32481C7.05131 12.6205 6.78055 12.6751 6.52847 12.7812C6.2764 12.8874 6.0481 13.0428 5.85701 13.2385C5.66592 13.4342 5.5159 13.6661 5.41578 13.9206C5.31566 14.1752 5.26746 14.4471 5.27403 14.7206V18.8221H7.32481V26.6807C7.34186 27.2132 7.56542 27.7181 7.94819 28.0886C8.33095 28.4591 8.84287 28.6661 9.37559 28.6659H25.7818C26.3257 28.6659 26.8474 28.4498 27.232 28.0652C27.6166 27.6806 27.8326 27.159 27.8326 26.6151V18.7565H29.8834V14.7206ZM22.8287 9.38853C23.2638 9.38853 23.6811 9.56138 23.9888 9.86906C24.2965 10.1767 24.4693 10.594 24.4693 11.0292C24.4693 11.4643 24.2965 11.8816 23.9888 12.1893C23.6811 12.4969 23.2638 12.6698 22.8287 12.6698H18.6943C18.8407 11.7014 19.3486 10.8244 20.1158 10.2155C20.8829 9.60664 21.8524 9.31114 22.8287 9.38853ZM12.3287 9.38853C13.3051 9.31114 14.2745 9.60664 15.0417 10.2155C15.8088 10.8244 16.3168 11.7014 16.4631 12.6698H12.3287C11.9662 12.5872 11.6426 12.3839 11.4107 12.0933C11.1789 11.8027 11.0526 11.4419 11.0526 11.0702C11.0526 10.6984 11.1789 10.3377 11.4107 10.0471C11.6426 9.75643 11.9662 9.55317 12.3287 9.47056V9.38853ZM7.32481 14.7206H14.4943V16.7057H7.32481V14.7206ZM14.4943 26.6807H9.37559V18.7565H14.4943V26.6807ZM16.5615 26.6807V14.7206H18.5959V26.6807H16.5615ZM25.7818 26.6807H20.6631V18.7565H25.7818V26.6807ZM27.8326 16.837H20.6631V14.7206H27.8326V16.837Z" fill="#1877F2"/>
<defs>
<filter id="filter0_i_948_2813" x="0.5" y="0.5" width="38" height="40" filterUnits="userSpaceOnUse" color-interpolation-filters="sRGB">
<feFlood flood-opacity="0" result="BackgroundImageFix"/>
<feBlend mode="normal" in="SourceGraphic" in2="BackgroundImageFix" result="shape"/>
<feColorMatrix in="SourceAlpha" type="matrix" values="0 0 0 0 0 0 0 0 0 0 0 0 0 0 0 0 0 0 127 0" result="hardAlpha"/>
<feOffset dx="3" dy="5"/>
<feGaussianBlur stdDeviation="5"/>
<feComposite in2="hardAlpha" operator="arithmetic" k2="-1" k3="1"/>
<feColorMatrix type="matrix" values="0 0 0 0 0.0588235 0 0 0 0 0.0862745 0 0 0 0 0.117647 0 0 0 0.08 0"/>
<feBlend mode="normal" in2="shape" result="effect1_innerShadow_948_2813"/>
</filter>
</defs>
</svg>
