<svg width="32" height="26" viewBox="0 0 32 26" fill="none" xmlns="http://www.w3.org/2000/svg">
<path d="M13.8667 25.1813C14.4667 25.3924 15.1111 24.9535 15.1111 24.3202V3.35354C15.1111 3.1202 15.0222 2.88687 14.8333 2.74243C13.7444 1.87576 11.2444 0.764648 8 0.764648C5.19444 0.764648 2.57222 1.50354 1.00556 2.10354C0.377778 2.34798 0 2.9702 0 3.64243V24.2146C0 24.8758 0.711111 25.3369 1.33889 25.1313C3.08889 24.548 5.86111 23.8758 8 23.8758C9.88333 23.8758 12.3889 24.6535 13.8667 25.1813ZM18.1333 25.1813C19.6111 24.6535 22.1167 23.8758 24 23.8758C26.1389 23.8758 28.9111 24.548 30.6611 25.1313C31.2889 25.3424 32 24.8758 32 24.2146V3.64243C32 2.9702 31.6222 2.34798 30.9944 2.10909C29.4278 1.50354 26.8056 0.764648 24 0.764648C20.7556 0.764648 18.2556 1.87576 17.1667 2.74243C16.9833 2.88687 16.8889 3.1202 16.8889 3.35354V24.3202C16.8889 24.9535 17.5389 25.3924 18.1333 25.1813Z" fill="#1A74E4"/>
</svg>
