<svg width="30" height="30" viewBox="0 0 164 163" fill="none" xmlns="http://www.w3.org/2000/svg">
<path d="M164 81.7994C164 36.6232 127.287 0 82 0C36.713 0 0 36.6232 0 81.7994C0 120.16 26.4762 152.35 62.1921 161.191V106.797H45.2837V81.7994H62.1921V71.028C62.1921 43.1868 74.8234 30.2821 102.224 30.2821C107.42 30.2821 116.384 31.2997 120.051 32.314V54.9725C118.116 54.7696 114.754 54.6682 110.579 54.6682C97.1339 54.6682 91.9384 59.7495 91.9384 72.9585V81.7994H118.723L114.121 106.797H91.9384V163C132.535 158.108 164 123.622 164 81.7994Z" fill="#0966FF"/>
</svg>
