<svg width="150" height="27" viewBox="0 0 150 27" fill="none" xmlns="http://www.w3.org/2000/svg">
<path d="M131.937 26.3578H136.928V18.2827L143.893 26.3578H150L141.892 17.0514L148.818 8.98189H143.261L136.928 16.4194V0L131.937 0.65419V26.3578ZM120.427 8.53679C114.886 8.53679 111.038 12.2637 111.038 17.6672C111.038 23.0706 114.886 26.7975 120.427 26.7975C125.967 26.7975 129.815 23.0706 129.815 17.6672C129.815 12.2637 125.967 8.53679 120.427 8.53679ZM120.427 22.5429C117.859 22.5429 116.101 20.5585 116.101 17.6672C116.101 14.7758 117.859 12.7914 120.427 12.7914C122.994 12.7914 124.753 14.7758 124.753 17.6672C124.753 20.5585 122.994 22.5429 120.427 22.5429ZM100.143 8.53679C94.602 8.53679 90.7541 12.2637 90.7541 17.6672C90.7541 23.0706 94.602 26.7975 100.143 26.7975C105.684 26.7975 109.532 23.0706 109.532 17.6672C109.532 12.2637 105.684 8.53679 100.143 8.53679ZM100.143 22.5429C97.5759 22.5429 95.8168 20.5585 95.8168 17.6672C95.8168 14.7758 97.5759 12.7914 100.143 12.7914C102.71 12.7914 104.469 14.7758 104.469 17.6672C104.469 20.5585 102.71 22.5429 100.143 22.5429ZM81.041 8.53679C78.7324 8.53679 76.8194 9.44375 75.6211 11.1038V0L70.6244 0.648602V26.3523H75.0549L75.1428 23.6698C76.3247 25.6706 78.441 26.7975 81.041 26.7975C85.7795 26.7975 89.248 22.9496 89.248 17.6672C89.248 12.3846 85.7959 8.53679 81.041 8.53679ZM79.8593 22.5429C77.2921 22.5429 75.5332 20.5585 75.5332 17.6672C75.5332 14.7758 77.2921 12.7914 79.8593 12.7914C82.4262 12.7914 84.1853 14.7758 84.1853 17.6672C84.1853 20.5585 82.4262 22.5429 79.8593 22.5429ZM60.62 22.7683C57.9705 22.7683 56.0686 21.5369 55.42 19.4152H67.7165C67.8375 18.7666 67.92 17.997 67.92 17.4802C67.92 11.8898 64.7921 8.53679 59.5371 8.53679C54.2326 8.53679 50.5606 12.2637 50.5606 17.6672C50.5606 23.1421 54.4086 26.7975 60.1198 26.7975C63.0771 26.7975 65.952 25.8081 67.7495 24.1645L65.952 20.9984C64.2095 22.2021 62.4999 22.7683 60.62 22.7683ZM59.5041 12.4176C61.8129 12.4176 63.286 13.8192 63.286 15.9905V16.0071H55.3155C55.7938 13.7039 57.2833 12.4176 59.5041 12.4176ZM42.744 26.8029C45.3276 26.8029 47.8562 25.8135 49.6371 24.0985L47.6857 20.8169C46.3004 21.8943 44.7285 22.4769 43.2388 22.4769C40.4683 22.4769 38.6213 20.5419 38.6213 17.6726C38.6213 14.8032 40.4683 12.8682 43.2388 12.8682C44.6074 12.8682 46.0971 13.363 47.3064 14.2371L49.2908 10.8838C47.6857 9.43274 45.2012 8.54221 42.7385 8.54221C37.3186 8.54221 33.4872 12.3241 33.4872 17.6726C33.4926 23.0046 37.324 26.8029 42.744 26.8029ZM26.8744 8.98189L26.7865 11.6865C25.6046 9.66909 23.4883 8.54221 20.8883 8.54221C16.1334 8.54221 12.6813 12.3901 12.6813 17.6726C12.6813 22.9552 16.1554 26.8029 20.8883 26.8029C23.4883 26.8029 25.61 25.6761 26.7865 23.6752L26.8744 26.3577H31.3049V8.98189H26.8744ZM22.0701 22.5429C19.5031 22.5429 17.744 20.5585 17.744 17.6672C17.744 14.7758 19.5031 12.7914 22.0701 12.7914C24.6372 12.7914 26.3961 14.7758 26.3961 17.6672C26.3961 20.5585 24.6316 22.5429 22.0701 22.5429ZM12.3075 9.01456H7.81657V7.53028C7.81657 5.30953 8.6851 4.45759 10.9389 4.45759C11.6369 4.45759 12.2031 4.47401 12.5274 4.50703V0.6977C11.9117 0.527211 10.4111 0.356892 9.54262 0.356892C4.95263 0.356892 2.83634 2.52262 2.83634 7.20048V9.00898H0V13.2087H2.83634V26.3519H7.82199V13.2141H11.538L12.3075 9.01456Z" fill="#0866FF"/>
</svg>
