<svg width="24" height="28" viewBox="0 0 24 28" fill="none" xmlns="http://www.w3.org/2000/svg">
<path d="M6.85714 0.285645C7.80536 0.285645 8.57143 1.05172 8.57143 1.99993V3.71422H15.4286V1.99993C15.4286 1.05172 16.1946 0.285645 17.1429 0.285645C18.0911 0.285645 18.8571 1.05172 18.8571 1.99993V3.71422H21.4286C22.8482 3.71422 24 4.866 24 6.28565V8.85707H0V6.28565C0 4.866 1.15179 3.71422 2.57143 3.71422H5.14286V1.99993C5.14286 1.05172 5.90893 0.285645 6.85714 0.285645ZM0 10.5714H24V25.1428C24 26.5624 22.8482 27.7142 21.4286 27.7142H2.57143C1.15179 27.7142 0 26.5624 0 25.1428V10.5714ZM3.42857 14.8571V16.5714C3.42857 17.0428 3.81429 17.4285 4.28571 17.4285H6C6.47143 17.4285 6.85714 17.0428 6.85714 16.5714V14.8571C6.85714 14.3856 6.47143 13.9999 6 13.9999H4.28571C3.81429 13.9999 3.42857 14.3856 3.42857 14.8571ZM10.2857 14.8571V16.5714C10.2857 17.0428 10.6714 17.4285 11.1429 17.4285H12.8571C13.3286 17.4285 13.7143 17.0428 13.7143 16.5714V14.8571C13.7143 14.3856 13.3286 13.9999 12.8571 13.9999H11.1429C10.6714 13.9999 10.2857 14.3856 10.2857 14.8571ZM18 13.9999C17.5286 13.9999 17.1429 14.3856 17.1429 14.8571V16.5714C17.1429 17.0428 17.5286 17.4285 18 17.4285H19.7143C20.1857 17.4285 20.5714 17.0428 20.5714 16.5714V14.8571C20.5714 14.3856 20.1857 13.9999 19.7143 13.9999H18ZM3.42857 21.7142V23.4285C3.42857 23.8999 3.81429 24.2856 4.28571 24.2856H6C6.47143 24.2856 6.85714 23.8999 6.85714 23.4285V21.7142C6.85714 21.2428 6.47143 20.8571 6 20.8571H4.28571C3.81429 20.8571 3.42857 21.2428 3.42857 21.7142ZM11.1429 20.8571C10.6714 20.8571 10.2857 21.2428 10.2857 21.7142V23.4285C10.2857 23.8999 10.6714 24.2856 11.1429 24.2856H12.8571C13.3286 24.2856 13.7143 23.8999 13.7143 23.4285V21.7142C13.7143 21.2428 13.3286 20.8571 12.8571 20.8571H11.1429ZM17.1429 21.7142V23.4285C17.1429 23.8999 17.5286 24.2856 18 24.2856H19.7143C20.1857 24.2856 20.5714 23.8999 20.5714 23.4285V21.7142C20.5714 21.2428 20.1857 20.8571 19.7143 20.8571H18C17.5286 20.8571 17.1429 21.2428 17.1429 21.7142Z" fill="#1A74E4"/>
</svg>
