<svg width="36" height="26" viewBox="0 0 36 26" fill="none" xmlns="http://www.w3.org/2000/svg">
<path d="M17.9081 23.1613C17.9081 23.1613 16.3086 23.1613 16.3086 21.5619C16.3086 19.9624 17.9081 15.164 25.9054 15.164C33.9027 15.164 35.5021 19.9624 35.5021 21.5619C35.5021 23.1613 33.9027 23.1613 33.9027 23.1613H17.9081ZM25.9054 13.5645C27.178 13.5645 28.3985 13.059 29.2983 12.1591C30.1982 11.2593 30.7038 10.0388 30.7038 8.76616C30.7038 7.49355 30.1982 6.27306 29.2983 5.37319C28.3985 4.47332 27.178 3.96777 25.9054 3.96777C24.6328 3.96777 23.4123 4.47332 22.5124 5.37319C21.6125 6.27306 21.107 7.49355 21.107 8.76616C21.107 10.0388 21.6125 11.2593 22.5124 12.1591C23.4123 13.059 24.6328 13.5645 25.9054 13.5645Z" fill="url(#paint0_linear_948_2761)"/>
<path d="M2.5779 25.4193C2.5779 25.4193 0.5 25.4193 0.5 23.3494C0.5 21.2795 2.5779 15.0698 12.9674 15.0698C23.3569 15.0698 25.4348 21.2795 25.4348 23.3494C25.4348 25.4193 23.3569 25.4193 23.3569 25.4193H2.5779ZM12.9674 12.9999C14.6207 12.9999 16.2063 12.3457 17.3753 11.1811C18.5444 10.0166 19.2011 8.43715 19.2011 6.79024C19.2011 5.14333 18.5444 3.56388 17.3753 2.39934C16.2063 1.2348 14.6207 0.580566 12.9674 0.580566C11.3141 0.580566 9.72857 1.2348 8.55952 2.39934C7.39047 3.56388 6.73371 5.14333 6.73371 6.79024C6.73371 8.43715 7.39047 10.0166 8.55952 11.1811C9.72857 12.3457 11.3141 12.9999 12.9674 12.9999Z" fill="url(#paint1_linear_948_2761)"/>
<defs>
<linearGradient id="paint0_linear_948_2761" x1="31.5505" y1="5.66132" x2="21.3892" y2="20.9033" gradientUnits="userSpaceOnUse">
<stop stop-color="#4AFFAB"/>
<stop offset="1" stop-color="#2D9966"/>
</linearGradient>
<linearGradient id="paint1_linear_948_2761" x1="21.3871" y1="1.14508" x2="6.14516" y2="23.7257" gradientUnits="userSpaceOnUse">
<stop stop-color="#1877F2"/>
<stop offset="1" stop-color="#0E458C"/>
</linearGradient>
</defs>
</svg>
