<svg width="30" height="30" viewBox="0 0 30 30" fill="none" xmlns="http://www.w3.org/2000/svg">
<path fill-rule="evenodd" clip-rule="evenodd" d="M3.20923 5.72665C5.95376 2.24149 10.2155 0 15 0C23.2843 0 30 6.71573 30 15C30 23.2843 23.2843 30 15 30C6.71573 30 0 23.2843 0 15C0 14.3096 0.559644 13.75 1.25 13.75C1.94036 13.75 2.5 14.3096 2.5 15C2.5 21.9036 8.09644 27.5 15 27.5C21.9036 27.5 27.5 21.9036 27.5 15C27.5 8.09644 21.9036 2.5 15 2.5C11.0141 2.5 7.46423 4.36423 5.17333 7.27335L3.20923 5.72665Z" fill="#0966FF"/>
<path fill-rule="evenodd" clip-rule="evenodd" d="M15.25 6.81836C15.9404 6.81836 16.5 7.378 16.5 8.06836V14.757L20.5805 18.3841C21.0964 18.8427 21.1429 19.6328 20.6843 20.1488C20.2256 20.6648 19.4355 20.7113 18.9195 20.2526L14.4195 16.2526C14.1527 16.0154 14 15.6754 14 15.3184V8.06836C14 7.378 14.5596 6.81836 15.25 6.81836Z" fill="#0966FF"/>
<path fill-rule="evenodd" clip-rule="evenodd" d="M3.97656 0.681641C4.66692 0.681641 5.22656 1.24128 5.22656 1.93164V5.68164H8.97656C9.66692 5.68164 10.2266 6.24128 10.2266 6.93164C10.2266 7.622 9.66692 8.18164 8.97656 8.18164H3.97656C3.28621 8.18164 2.72656 7.622 2.72656 6.93164V1.93164C2.72656 1.24128 3.28621 0.681641 3.97656 0.681641Z" fill="#0966FF"/>
</svg>
