<svg width="28" height="26" viewBox="0 0 28 26" fill="none" xmlns="http://www.w3.org/2000/svg">
<path d="M24.5 0.75H19.7914L19.7367 0.804688L12.7914 7.75H17.8281L17.8828 7.69531L24.8172 0.766406C24.7133 0.755469 24.6094 0.75 24.5 0.75ZM28 7.75V4.25C28 3.42422 27.7102 2.65859 27.2344 2.0625L21.5469 7.75H28ZM16.0836 0.75H11.0469L10.9922 0.804688L4.04141 7.75H9.07812L9.13281 7.69531L16.0781 0.75H16.0836ZM3.5 0.75C1.56953 0.75 0 2.31953 0 4.25V7.75H0.333594L0.388281 7.69531L7.33359 0.75H3.5ZM28 9.5H0V21.75C0 23.6805 1.56953 25.25 3.5 25.25H24.5C26.4305 25.25 28 23.6805 28 21.75V9.5Z" fill="#1A74E4"/>
</svg>
